<svg xmlns="http://www.w3.org/2000/svg" width="1200" height="800" viewBox="0 0 1200 800">
  <defs>
    <linearGradient id="bg" x1="0" y1="0" x2="1" y2="1">
      <stop offset="0" stop-color="#0b0f19"/>
      <stop offset="0.6" stop-color="#111827"/>
      <stop offset="1" stop-color="#0b1220"/>
    </linearGradient>
    <linearGradient id="accent" x1="0" y1="0" x2="1" y2="0">
      <stop offset="0" stop-color="#F97316"/>
      <stop offset="1" stop-color="#F59E0B"/>
    </linearGradient>
    <filter id="glow" x="-30%" y="-30%" width="160%" height="160%">
      <feGaussianBlur stdDeviation="22"/>
    </filter>
  </defs>
  <rect width="1200" height="800" fill="url(#bg)"/>
  <circle cx="360" cy="260" r="220" fill="#F97316" opacity="0.10" filter="url(#glow)"/>
  <circle cx="880" cy="560" r="260" fill="#60A5FA" opacity="0.08" filter="url(#glow)"/>

  <rect x="88" y="84" width="1024" height="632" rx="18" fill="rgba(255,255,255,0.03)" stroke="rgba(255,255,255,0.10)"/>
  <rect x="112" y="112" width="256" height="10" rx="5" fill="url(#accent)" opacity="0.85"/>
  <text x="112" y="156" font-family="ui-monospace, SFMono-Regular, Menlo, Monaco, Consolas, 'Liberation Mono', 'Courier New', monospace" font-size="16" fill="rgba(255,255,255,0.70)">BASELINE · Anime 1.3.1</text>

  <g transform="translate(112 190)">
    <rect width="976" height="500" rx="16" fill="rgba(0,0,0,0.25)" stroke="rgba(255,255,255,0.08)"/>
    <circle cx="488" cy="240" r="148" fill="rgba(255,255,255,0.06)"/>
    <circle cx="450" cy="220" r="16" fill="rgba(255,255,255,0.20)"/>
    <circle cx="526" cy="220" r="16" fill="rgba(255,255,255,0.20)"/>
    <path d="M430 300c40 36 78 54 114 54 36 0 74-18 114-54" fill="none" stroke="rgba(255,255,255,0.20)" stroke-width="10" stroke-linecap="round"/>
    <path d="M220 430c96-88 196-132 300-132 104 0 204 44 300 132" fill="none" stroke="rgba(255,255,255,0.14)" stroke-width="10" stroke-linecap="round"/>
    <rect x="28" y="28" width="220" height="30" rx="15" fill="rgba(0,0,0,0.55)"/>
    <text x="44" y="49" font-family="ui-monospace, SFMono-Regular, Menlo, Monaco, Consolas, 'Liberation Mono', 'Courier New', monospace" font-size="14" fill="rgba(255,255,255,0.85)">STYLE: generic</text>
    <rect x="28" y="74" width="320" height="28" rx="14" fill="rgba(255,255,255,0.06)"/>
    <text x="44" y="94" font-family="ui-monospace, SFMono-Regular, Menlo, Monaco, Consolas, 'Liberation Mono', 'Courier New', monospace" font-size="13" fill="rgba(255,255,255,0.55)">issues: flat mood · limited variety</text>
  </g>
</svg>
