<svg xmlns="http://www.w3.org/2000/svg" width="1200" height="800" viewBox="0 0 1200 800">
  <defs>
    <linearGradient id="bg" x1="0" y1="0" x2="1" y2="1">
      <stop offset="0" stop-color="#121113"/>
      <stop offset="0.55" stop-color="#1b1620"/>
      <stop offset="1" stop-color="#111827"/>
    </linearGradient>
    <linearGradient id="accent" x1="0" y1="0" x2="1" y2="0">
      <stop offset="0" stop-color="#F97316" stop-opacity="0.95"/>
      <stop offset="1" stop-color="#FB7185" stop-opacity="0.8"/>
    </linearGradient>
    <filter id="soft" x="-20%" y="-20%" width="140%" height="140%">
      <feGaussianBlur stdDeviation="18"/>
    </filter>
  </defs>
  <rect width="1200" height="800" fill="url(#bg)"/>
  <circle cx="270" cy="240" r="180" fill="#F97316" opacity="0.18" filter="url(#soft)"/>
  <circle cx="860" cy="220" r="220" fill="#FB7185" opacity="0.12" filter="url(#soft)"/>
  <circle cx="840" cy="620" r="260" fill="#60A5FA" opacity="0.10" filter="url(#soft)"/>

  <rect x="72" y="72" width="1056" height="656" rx="18" fill="rgba(255,255,255,0.03)" stroke="rgba(255,255,255,0.10)"/>
  <rect x="96" y="104" width="320" height="12" rx="6" fill="url(#accent)"/>
  <rect x="96" y="140" width="540" height="10" rx="5" fill="rgba(255,255,255,0.22)"/>
  <rect x="96" y="166" width="460" height="10" rx="5" fill="rgba(255,255,255,0.16)"/>

  <g transform="translate(96 220)">
    <rect width="1008" height="428" rx="14" fill="rgba(0,0,0,0.24)" stroke="rgba(255,255,255,0.08)"/>
    <rect x="24" y="24" width="460" height="380" rx="12" fill="rgba(255,255,255,0.04)" stroke="rgba(255,255,255,0.08)"/>
    <rect x="524" y="24" width="460" height="380" rx="12" fill="rgba(255,255,255,0.04)" stroke="rgba(255,255,255,0.08)"/>
    <circle cx="254" cy="214" r="94" fill="rgba(249,115,22,0.16)"/>
    <circle cx="754" cy="214" r="94" fill="rgba(251,113,133,0.14)"/>
    <path d="M168 300c38-56 84-84 138-84 54 0 100 28 138 84" fill="none" stroke="rgba(255,255,255,0.22)" stroke-width="10" stroke-linecap="round"/>
    <path d="M668 300c38-56 84-84 138-84 54 0 100 28 138 84" fill="none" stroke="rgba(255,255,255,0.22)" stroke-width="10" stroke-linecap="round"/>
    <rect x="48" y="44" width="150" height="26" rx="13" fill="rgba(0,0,0,0.55)"/>
    <text x="64" y="63" font-family="ui-monospace, SFMono-Regular, Menlo, Monaco, Consolas, 'Liberation Mono', 'Courier New', monospace" font-size="14" fill="#FDE68A">DATA SAMPLE</text>
    <rect x="548" y="44" width="170" height="26" rx="13" fill="rgba(0,0,0,0.55)"/>
    <text x="564" y="63" font-family="ui-monospace, SFMono-Regular, Menlo, Monaco, Consolas, 'Liberation Mono', 'Courier New', monospace" font-size="14" fill="#A7F3D0">CLEANED</text>
  </g>

  <text x="96" y="720" font-family="ui-monospace, SFMono-Regular, Menlo, Monaco, Consolas, 'Liberation Mono', 'Courier New', monospace" font-size="14" fill="rgba(255,255,255,0.45)">乙女 LoRA · 数据准备占位图（请替换为真实样例）</text>
</svg>
