<svg xmlns="http://www.w3.org/2000/svg" width="1200" height="800" viewBox="0 0 1200 800">
  <defs>
    <linearGradient id="bg" x1="0" y1="0" x2="1" y2="1">
      <stop offset="0" stop-color="#0a1024"/>
      <stop offset="0.55" stop-color="#121a3a"/>
      <stop offset="1" stop-color="#0b1220"/>
    </linearGradient>
    <linearGradient id="accent" x1="0" y1="0" x2="1" y2="0">
      <stop offset="0" stop-color="#A78BFA"/>
      <stop offset="1" stop-color="#60A5FA"/>
    </linearGradient>
    <filter id="glow" x="-30%" y="-30%" width="160%" height="160%">
      <feGaussianBlur stdDeviation="22"/>
    </filter>
  </defs>
  <rect width="1200" height="800" fill="url(#bg)"/>
  <circle cx="360" cy="280" r="250" fill="#A78BFA" opacity="0.12" filter="url(#glow)"/>
  <circle cx="900" cy="560" r="280" fill="#60A5FA" opacity="0.08" filter="url(#glow)"/>

  <rect x="88" y="84" width="1024" height="632" rx="18" fill="rgba(255,255,255,0.03)" stroke="rgba(255,255,255,0.10)"/>
  <rect x="112" y="112" width="320" height="10" rx="5" fill="url(#accent)" opacity="0.92"/>
  <text x="112" y="156" font-family="ui-monospace, SFMono-Regular, Menlo, Monaco, Consolas, 'Liberation Mono', 'Courier New', monospace" font-size="16" fill="rgba(255,255,255,0.70)">ITERATION · Plan C · v0.3</text>

  <g transform="translate(112 190)">
    <rect width="976" height="500" rx="16" fill="rgba(0,0,0,0.24)" stroke="rgba(255,255,255,0.08)"/>
    <circle cx="488" cy="240" r="156" fill="rgba(167,139,250,0.12)"/>
    <circle cx="450" cy="220" r="16" fill="rgba(255,255,255,0.22)"/>
    <circle cx="526" cy="220" r="16" fill="rgba(255,255,255,0.22)"/>
    <path d="M422 300c46 34 90 51 132 51 42 0 86-17 132-51" fill="none" stroke="rgba(255,255,255,0.22)" stroke-width="10" stroke-linecap="round"/>
    <path d="M196 442c112-102 220-153 324-153 104 0 212 51 324 153" fill="none" stroke="rgba(255,255,255,0.14)" stroke-width="10" stroke-linecap="round"/>
    <g opacity="0.65">
      <circle cx="380" cy="190" r="3" fill="rgba(255,255,255,0.55)"/>
      <circle cx="600" cy="190" r="3" fill="rgba(255,255,255,0.55)"/>
      <circle cx="488" cy="170" r="3" fill="rgba(255,255,255,0.55)"/>
      <circle cx="430" cy="260" r="3" fill="rgba(255,255,255,0.55)"/>
      <circle cx="546" cy="260" r="3" fill="rgba(255,255,255,0.55)"/>
    </g>
    <rect x="28" y="28" width="290" height="30" rx="15" fill="rgba(0,0,0,0.55)"/>
    <text x="44" y="49" font-family="ui-monospace, SFMono-Regular, Menlo, Monaco, Consolas, 'Liberation Mono', 'Courier New', monospace" font-size="14" fill="rgba(255,255,255,0.88)">focus: detail</text>
    <rect x="28" y="74" width="520" height="28" rx="14" fill="rgba(255,255,255,0.06)"/>
    <text x="44" y="94" font-family="ui-monospace, SFMono-Regular, Menlo, Monaco, Consolas, 'Liberation Mono', 'Courier New', monospace" font-size="13" fill="rgba(255,255,255,0.55)">higher detail · richer accessories · needs constraints</text>
  </g>
</svg>
