<svg xmlns="http://www.w3.org/2000/svg" width="1200" height="800" viewBox="0 0 1200 800">
  <defs>
    <linearGradient id="bg" x1="0" y1="0" x2="1" y2="1">
      <stop offset="0" stop-color="#0b1020"/>
      <stop offset="0.6" stop-color="#0f172a"/>
      <stop offset="1" stop-color="#0b1220"/>
    </linearGradient>
    <linearGradient id="accent" x1="0" y1="0" x2="1" y2="0">
      <stop offset="0" stop-color="#22C55E"/>
      <stop offset="1" stop-color="#A3E635"/>
    </linearGradient>
    <filter id="glow" x="-30%" y="-30%" width="160%" height="160%">
      <feGaussianBlur stdDeviation="22"/>
    </filter>
  </defs>
  <rect width="1200" height="800" fill="url(#bg)"/>
  <circle cx="340" cy="280" r="230" fill="#22C55E" opacity="0.10" filter="url(#glow)"/>
  <circle cx="920" cy="560" r="260" fill="#60A5FA" opacity="0.06" filter="url(#glow)"/>

  <rect x="88" y="84" width="1024" height="632" rx="18" fill="rgba(255,255,255,0.03)" stroke="rgba(255,255,255,0.10)"/>
  <rect x="112" y="112" width="280" height="10" rx="5" fill="url(#accent)" opacity="0.90"/>
  <text x="112" y="156" font-family="ui-monospace, SFMono-Regular, Menlo, Monaco, Consolas, 'Liberation Mono', 'Courier New', monospace" font-size="16" fill="rgba(255,255,255,0.70)">ITERATION · Plan A · v0.1</text>

  <g transform="translate(112 190)">
    <rect width="976" height="500" rx="16" fill="rgba(0,0,0,0.24)" stroke="rgba(255,255,255,0.08)"/>
    <circle cx="488" cy="240" r="150" fill="rgba(34,197,94,0.10)"/>
    <circle cx="450" cy="220" r="16" fill="rgba(255,255,255,0.22)"/>
    <circle cx="526" cy="220" r="16" fill="rgba(255,255,255,0.22)"/>
    <path d="M426 300c42 34 82 51 120 51 38 0 78-17 120-51" fill="none" stroke="rgba(255,255,255,0.22)" stroke-width="10" stroke-linecap="round"/>
    <path d="M210 434c104-94 208-141 312-141 104 0 208 47 312 141" fill="none" stroke="rgba(255,255,255,0.14)" stroke-width="10" stroke-linecap="round"/>

    <rect x="28" y="28" width="260" height="30" rx="15" fill="rgba(0,0,0,0.55)"/>
    <text x="44" y="49" font-family="ui-monospace, SFMono-Regular, Menlo, Monaco, Consolas, 'Liberation Mono', 'Courier New', monospace" font-size="14" fill="rgba(255,255,255,0.88)">focus: stability</text>
    <rect x="28" y="74" width="420" height="28" rx="14" fill="rgba(255,255,255,0.06)"/>
    <text x="44" y="94" font-family="ui-monospace, SFMono-Regular, Menlo, Monaco, Consolas, 'Liberation Mono', 'Courier New', monospace" font-size="13" fill="rgba(255,255,255,0.55)">clean skin · steady structure · mild style</text>
  </g>
</svg>
